# xmcd CD database file generated by RipIT.
#
# Track frame offsets:
#	150
#	17625
#	32617
#	51080
#	63552
#	81252
#	96085
#	109005
#	128197
#	137712
#	153692
#	162685
#	179802
#	198905
#
# Disc length: 2798 seconds
#
# Revision: 2
# Processed by: cddbd v1.5.1PL2 Copyright (c) Steve Scherf et al.
# Submitted via: RipIT 3.4 www.suwald.com/ripit/ripit.html at Wed Dec 28 10:15:50 CET 2005.
#
DISCID=c60aec0e
DTITLE=Marianne Faithfull - I'll Be Your Baby Tonight
DYEAR=1900
DGENRE=
TTITLE0=I'll Be Your Baby Tonight
TTITLE1=I'm Not Lisa
TTITLE2=It Wasn't God Who Made Honky Tonk Angels
TTITLE3=Sweet Little Sixteen
TTITLE4=Vanilla O'lay
TTITLE5=Dreamin' My Dreams
TTITLE6=Somebody Loves You
TTITLE7=That Wasthe Day
TTITLE8=The Way You Want Mer To Be
TTITLE9=Wait For Me Down By The River
TTITLE10=Crazy Lady Blues
TTITLE11=It's All Over Now Baby Blue
TTITLE12=Rich Kid Blues
TTITLE13=Sad Lisa
EXTD=
EXTT0=
EXTT1=
EXTT2=
EXTT3=
EXTT4=
EXTT5=
EXTT6=
EXTT7=
EXTT8=
EXTT9=
EXTT10=
EXTT11=
EXTT12=
EXTT13=
PLAYORDER=
